<svg
    aria-label="logo"
    xmlns="http://www.w3.org/2000/svg"
    xmlnsXlink="http://www.w3.org/1999/xlink"
    viewBox="0 0 450 315"
    version="1.0"
>
  <g fill="transparent"	stroke="#00b4b4cc" stroke-width="8">
      <rect
        x="435"
        y="45"
        width="10"
        height="2"
      />
	  <rect
        x="435"
        y="60"
        width="10"
        height="2"
      />
	  <rect
        x="435"
        y="75"
        width="10"
        height="2"
      />
	  <rect
        x="435"
        y="90"
        width="10"
        height="2"
      />
	  <rect
        x="435"
        y="105"
        width="10"
        height="2"
      />
	  <rect
        x="435"
        y="120"
        width="10"
        height="2"
      />
	  <rect
        x="435"
        y="135"
        width="10"
        height="2"
      />
	  <rect
        x="435"
        y="150"
        width="10"
        height="2"
      />
	  <rect
        x="435"
        y="165"
        width="10"
        height="2"
      />
	  <rect
        x="435"
        y="180"
        width="10"
        height="2"
      />
	  <rect
        x="435"
        y="195"
        width="10"
        height="2"
      />
	  <rect
        x="435"
        y="210"
        width="10"
        height="2"
      />
	  <rect
        x="435"
        y="225"
        width="10"
        height="2"
      />
	  <rect
        x="435"
        y="240"
        width="10"
        height="2"
      />
	  <rect
        x="435"
        y="255"
        width="10"
        height="2"
      />
	  <rect
        x="435"
        y="270"
        width="10"
        height="2"
      />
      <rect
        x="5"
        y="45"
        width="10"
        height="2"
      />
	  <rect
        x="5"
        y="60"
        width="10"
        height="2"
      />
	  <rect
        x="5"
        y="75"
        width="10"
        height="2"
      />
	  <rect
        x="5"
        y="90"
        width="10"
        height="2"
      />
	  <rect
        x="5"
        y="105"
        width="10"
        height="2"
      />
	  <rect
        x="5"
        y="120"
        width="10"
        height="2"
      />
	  <rect
        x="5"
        y="135"
        width="10"
        height="2"
      />
	  <rect
        x="5"
        y="150"
        width="10"
        height="2"
      />
	  <rect
        x="5"
        y="165"
        width="10"
        height="2"
      />
	  <rect
        x="5"
        y="180"
        width="10"
        height="2"
      />
	  <rect
        x="5"
        y="195"
        width="10"
        height="2"
      />
	  <rect
        x="5"
        y="210"
        width="10"
        height="2"
      />
	  <rect
        x="5"
        y="225"
        width="10"
        height="2"
      />
	  <rect
        x="5"
        y="240"
        width="10"
        height="2"
      />
	  <rect
        x="5"
        y="255"
        width="10"
        height="2"
      />
	  <rect
        x="5"
        y="270"
        width="10"
        height="2"
      />
      <rect
        x="45"
        y="5"
        width="2"
        height="10"
      />
      <rect
        x="60"
        y="5"
        width="2"
        height="10"
      />
      <rect
        x="75"
        y="5"
        width="2"
        height="10"
      />
      <rect
        x="90"
        y="5"
        width="2"
        height="10"
      />
      <rect
        x="105"
        y="5"
        width="2"
        height="10"
      />
      <rect
        x="120"
        y="5"
        width="2"
        height="10"
      />
      <rect
        x="135"
        y="5"
        width="2"
        height="10"
      />
      <rect
        x="150"
        y="5"
        width="2"
        height="10"
      />
      <rect
        x="165"
        y="5"
        width="2"
        height="10"
      />
      <rect
        x="180"
        y="5"
        width="2"
        height="10"
      />
      <rect
        x="195"
        y="5"
        width="2"
        height="10"
      />
      <rect
        x="210"
        y="5"
        width="2"
        height="10"
      />
      <rect
        x="225"
        y="5"
        width="2"
        height="10"
      />
      <rect
        x="240"
        y="5"
        width="2"
        height="10"
      />
      <rect
        x="255"
        y="5"
        width="2"
        height="10"
      />
      <rect
        x="270"
        y="5"
        width="2"
        height="10"
      />
      <rect
        x="285"
        y="5"
        width="2"
        height="10"
      />
      <rect
        x="300"
        y="5"
        width="2"
        height="10"
      />
      <rect
        x="315"
        y="5"
        width="2"
        height="10"
      />
      <rect
        x="330"
        y="5"
        width="2"
        height="10"
      />
      <rect
        x="345"
        y="5"
        width="2"
        height="10"
      />
      <rect
        x="360"
        y="5"
        width="2"
        height="10"
      />
      <rect
        x="375"
        y="5"
        width="2"
        height="10"
      />
      <rect
        x="390"
        y="5"
        width="2"
        height="10"
      />
      <rect
        x="405"
        y="5"
        width="2"
        height="10"
      />
      <rect
        x="45"
        y="300"
        width="2"
        height="10"
      />
      <rect
        x="60"
        y="300"
        width="2"
        height="10"
      />
      <rect
        x="75"
        y="300"
        width="2"
        height="10"
      />
      <rect
        x="90"
        y="300"
        width="2"
        height="10"
      />
      <rect
        x="105"
        y="300"
        width="2"
        height="10"
      />
      <rect
        x="120"
        y="300"
        width="2"
        height="10"
      />
      <rect
        x="135"
        y="300"
        width="2"
        height="10"
      />
      <rect
        x="150"
        y="300"
        width="2"
        height="10"
      />
      <rect
        x="165"
        y="300"
        width="2"
        height="10"
      />
      <rect
        x="180"
        y="300"
        width="2"
        height="10"
      />
      <rect
        x="195"
        y="300"
        width="2"
        height="10"
      />
      <rect
        x="210"
        y="300"
        width="2"
        height="10"
      />
      <rect
        x="225"
        y="300"
        width="2"
        height="10"
      />
      <rect
        x="240"
        y="300"
        width="2"
        height="10"
      />
      <rect
        x="255"
        y="300"
        width="2"
        height="10"
      />
      <rect
        x="270"
        y="300"
        width="2"
        height="10"
      />
      <rect
        x="285"
        y="300"
        width="2"
        height="10"
      />
      <rect
        x="300"
        y="300"
        width="2"
        height="10"
      />
      <rect
        x="315"
        y="300"
        width="2"
        height="10"
      />
      <rect
        x="330"
        y="300"
        width="2"
        height="10"
      />
      <rect
        x="345"
        y="300"
        width="2"
        height="10"
      />
      <rect
        x="360"
        y="300"
        width="2"
        height="10"
      />
      <rect
        x="375"
        y="300"
        width="2"
        height="10"
      />
      <rect
        x="390"
        y="300"
        width="2"
        height="10"
      />
      <rect
        x="405"
        y="300"
        width="2"
        height="10"
      />
  </g>
    <polygon
      stroke="#00b4b4cc"
      stroke-width="8"
	  fill="transparent"
      points="30,295 420,295 430,285 430,30 420,20 30,20 20,30 20,285"
    />
    <g
      transform="translate(-18, 22) scale(1.25)"
    >
      <path
        d="M 65.171875 -39.609375 L 44.78125 -39.609375 L 41.171875 -137.84375 L 68.78125 -137.84375 Z M 54.921875 -28.1875 C 57.003906 -28.1875 58.972656 -27.796875 60.828125 -27.015625 C 62.679688 -26.242188 64.289062 -25.171875 65.65625 -23.796875 C 67.019531 -22.429688 68.109375 -20.820312 68.921875 -18.96875 C 69.734375 -17.113281 70.140625 -15.113281 70.140625 -12.96875 C 70.140625 -10.820312 69.734375 -8.820312 68.921875 -6.96875 C 68.109375 -5.113281 67.019531 -3.503906 65.65625 -2.140625 C 64.289062 -0.773438 62.679688 0.296875 60.828125 1.078125 C 58.972656 1.859375 57.003906 2.25 54.921875 2.25 C 52.835938 2.25 50.867188 1.859375 49.015625 1.078125 C 47.160156 0.296875 45.550781 -0.773438 44.1875 -2.140625 C 42.820312 -3.503906 41.75 -5.113281 40.96875 -6.96875 C 40.1875 -8.820312 39.796875 -10.820312 39.796875 -12.96875 C 39.796875 -15.113281 40.1875 -17.113281 40.96875 -18.96875 C 41.75 -20.820312 42.820312 -22.429688 44.1875 -23.796875 C 45.550781 -25.171875 47.160156 -26.242188 49.015625 -27.015625 C 50.867188 -27.796875 52.835938 -28.1875 54.921875 -28.1875 Z M 54.921875 -28.1875 "
        stroke-width="3"
        stroke="#ff5050cc"
        fill="#ff50501c"
        style="
          filter:
            drop-shadow(1px 1px 3px #ff5050cc) drop-shadow(-1px -1px 3px #ff5050cc)"
        transform="translate(18.725854, 157.900927)"
      />
      <path
        d="M 87.90625 -81.75 C 89.71875 -79.476562 91 -77.085938 91.75 -74.578125 C 92.5 -72.078125 92.875 -69.523438 92.875 -66.921875 C 92.875 -61.390625 91.914062 -56.507812 90 -52.28125 C 88.082031 -48.0625 85.382812 -44.519531 81.90625 -41.65625 C 78.425781 -38.789062 74.257812 -36.625 69.40625 -35.15625 C 64.5625 -33.695312 59.210938 -32.96875 53.359375 -32.96875 C 49.910156 -32.96875 46.722656 -33.304688 43.796875 -33.984375 C 40.867188 -34.671875 38.660156 -35.472656 37.171875 -36.390625 C 36.066406 -35.285156 35.125 -34.066406 34.34375 -32.734375 C 33.5625 -31.398438 33.171875 -29.882812 33.171875 -28.1875 C 33.171875 -27.15625 33.429688 -26.117188 33.953125 -25.078125 C 34.472656 -24.035156 35.234375 -23.109375 36.234375 -22.296875 C 37.242188 -21.484375 38.445312 -20.816406 39.84375 -20.296875 C 41.25 -19.773438 42.828125 -19.476562 44.578125 -19.40625 L 68.09375 -18.53125 C 73.363281 -18.40625 78.128906 -17.738281 82.390625 -16.53125 C 86.648438 -15.332031 90.304688 -13.625 93.359375 -11.40625 C 96.421875 -9.195312 98.78125 -6.515625 100.4375 -3.359375 C 102.09375 -0.210938 102.921875 3.378906 102.921875 7.421875 C 102.921875 12.035156 101.878906 16.390625 99.796875 20.484375 C 97.710938 24.585938 94.570312 28.148438 90.375 31.171875 C 86.1875 34.191406 80.96875 36.578125 74.71875 38.328125 C 68.476562 40.085938 61.226562 40.96875 52.96875 40.96875 C 44.96875 40.96875 38.085938 40.332031 32.328125 39.0625 C 26.578125 37.800781 21.863281 36.03125 18.1875 33.75 C 14.519531 31.476562 11.804688 28.765625 10.046875 25.609375 C 8.296875 22.453125 7.421875 18.988281 7.421875 15.21875 C 7.421875 12.9375 7.710938 10.820312 8.296875 8.875 C 8.878906 6.925781 9.753906 5.054688 10.921875 3.265625 C 12.097656 1.472656 13.5625 -0.265625 15.3125 -1.953125 C 17.070312 -3.640625 19.15625 -5.332031 21.5625 -7.03125 C 18.375 -8.84375 15.945312 -11.179688 14.28125 -14.046875 C 12.625 -16.910156 11.796875 -19.96875 11.796875 -23.21875 C 11.796875 -25.425781 12.085938 -27.488281 12.671875 -29.40625 C 13.265625 -31.332031 14.03125 -33.171875 14.96875 -34.921875 C 15.914062 -36.679688 17.003906 -38.375 18.234375 -40 C 19.472656 -41.625 20.773438 -43.21875 22.140625 -44.78125 C 19.734375 -47.1875 17.734375 -50.09375 16.140625 -53.5 C 14.546875 -56.914062 13.75 -61.195312 13.75 -66.34375 C 13.75 -71.863281 14.738281 -76.785156 16.71875 -81.109375 C 18.707031 -85.441406 21.457031 -89.085938 24.96875 -92.046875 C 28.488281 -95.003906 32.671875 -97.242188 37.515625 -98.765625 C 42.359375 -100.296875 47.640625 -101.0625 53.359375 -101.0625 C 56.285156 -101.0625 59.097656 -100.914062 61.796875 -100.625 C 64.492188 -100.332031 66.953125 -99.832031 69.171875 -99.125 L 103.515625 -99.125 L 103.515625 -81.75 Z M 31.796875 13.171875 C 31.796875 17.003906 33.726562 19.832031 37.59375 21.65625 C 41.46875 23.476562 46.921875 24.390625 53.953125 24.390625 C 58.441406 24.390625 62.226562 23.96875 65.3125 23.125 C 68.40625 22.28125 70.925781 21.171875 72.875 19.796875 C 74.820312 18.429688 76.21875 16.835938 77.0625 15.015625 C 77.914062 13.203125 78.34375 11.316406 78.34375 9.359375 C 78.34375 7.609375 77.9375 6.128906 77.125 4.921875 C 76.3125 3.722656 75.171875 2.71875 73.703125 1.90625 C 72.242188 1.09375 70.519531 0.472656 68.53125 0.046875 C 66.550781 -0.367188 64.359375 -0.644531 61.953125 -0.78125 L 40.96875 -1.171875 C 39.082031 0.128906 37.535156 1.363281 36.328125 2.53125 C 35.128906 3.707031 34.1875 4.863281 33.5 6 C 32.820312 7.132812 32.367188 8.285156 32.140625 9.453125 C 31.910156 10.628906 31.796875 11.867188 31.796875 13.171875 Z M 35.796875 -66.34375 C 35.796875 -61.070312 37.34375 -56.890625 40.4375 -53.796875 C 43.53125 -50.710938 47.835938 -49.171875 53.359375 -49.171875 C 56.285156 -49.171875 58.835938 -49.65625 61.015625 -50.625 C 63.203125 -51.601562 65.007812 -52.90625 66.4375 -54.53125 C 67.863281 -56.15625 68.9375 -58.039062 69.65625 -60.1875 C 70.375 -62.332031 70.734375 -64.578125 70.734375 -66.921875 C 70.734375 -72.453125 69.1875 -76.757812 66.09375 -79.84375 C 63.007812 -82.9375 58.703125 -84.484375 53.171875 -84.484375 C 50.242188 -84.484375 47.691406 -83.992188 45.515625 -83.015625 C 43.335938 -82.046875 41.53125 -80.726562 40.09375 -79.0625 C 38.664062 -77.40625 37.59375 -75.472656 36.875 -73.265625 C 36.15625 -71.054688 35.796875 -68.75 35.796875 -66.34375 Z M 35.796875 -66.34375 "
        stroke-width="3"
        stroke="#00b4b4cc"
        fill="#00b4b41c"
        style="
          filter:
            drop-shadow(1px 1px 3px #00b4b4cc) drop-shadow(-1px -1px 3px #00b4b4cc)"
        transform="translate(128.572165, 157.900927)"
      />
      <path
        d="M 71.90625 -126.234375 C 71.90625 -124.085938 71.515625 -122.070312 70.734375 -120.1875 C 69.953125 -118.300781 68.859375 -116.660156 67.453125 -115.265625 C 66.054688 -113.867188 64.414062 -112.765625 62.53125 -111.953125 C 60.644531 -111.140625 58.597656 -110.734375 56.390625 -110.734375 C 54.179688 -110.734375 52.113281 -111.140625 50.1875 -111.953125 C 48.269531 -112.765625 46.613281 -113.867188 45.21875 -115.265625 C 43.820312 -116.660156 42.734375 -118.300781 41.953125 -120.1875 C 41.171875 -122.070312 40.78125 -124.085938 40.78125 -126.234375 C 40.78125 -128.378906 41.171875 -130.394531 41.953125 -132.28125 C 42.734375 -134.164062 43.820312 -135.820312 45.21875 -137.25 C 46.613281 -138.6875 48.269531 -139.8125 50.1875 -140.625 C 52.113281 -141.4375 54.179688 -141.84375 56.390625 -141.84375 C 58.597656 -141.84375 60.644531 -141.4375 62.53125 -140.625 C 64.414062 -139.8125 66.054688 -138.6875 67.453125 -137.25 C 68.859375 -135.820312 69.953125 -134.164062 70.734375 -132.28125 C 71.515625 -130.394531 71.90625 -128.378906 71.90625 -126.234375 Z M 45.5625 -80.578125 L 17.5625 -80.578125 L 17.5625 -99.125 L 69.953125 -99.125 L 69.953125 -18.53125 L 98.53125 -18.53125 L 98.53125 0 L 14.140625 0 L 14.140625 -18.53125 L 45.5625 -18.53125 Z M 45.5625 -80.578125 "
        stroke-width="3"
        stroke="#00b4b4cc"
        fill="#00b4b41c"
        style="
          filter:
            drop-shadow(1px 1px 3px #00b4b4cc) drop-shadow(-1px -1px 3px #00b4b4cc)"
        transform="translate(238.418476, 157.900927)"
      />
    </g>
  </svg>